<?xml version="1.0" encoding="UTF-8" standalone="no"?>
<!-- Created with Inkscape (http://www.inkscape.org/) -->

<svg
   width="209.72035"
   height="61.808968"
   viewBox="0 0 55.488509 16.353623"
   version="1.1"
   id="svg1"
   inkscape:version="1.3.2 (091e20e, 2023-11-25, custom)"
   sodipodi:docname="hullrs-web-banner-v2.svg"
   xml:space="preserve"
   inkscape:export-filename="hullrs-web-banner.png"
   inkscape:export-xdpi="300"
   inkscape:export-ydpi="300"
   xmlns:inkscape="http://www.inkscape.org/namespaces/inkscape"
   xmlns:sodipodi="http://sodipodi.sourceforge.net/DTD/sodipodi-0.dtd"
   xmlns="http://www.w3.org/2000/svg"
   xmlns:svg="http://www.w3.org/2000/svg"><sodipodi:namedview
     id="namedview1"
     pagecolor="#ffffff"
     bordercolor="#000000"
     borderopacity="0.25"
     inkscape:showpageshadow="2"
     inkscape:pageopacity="0.0"
     inkscape:pagecheckerboard="0"
     inkscape:deskcolor="#d1d1d1"
     inkscape:document-units="mm"
     inkscape:zoom="8"
     inkscape:cx="113.5"
     inkscape:cy="37.1875"
     inkscape:window-width="1920"
     inkscape:window-height="1009"
     inkscape:window-x="1072"
     inkscape:window-y="410"
     inkscape:window-maximized="1"
     inkscape:current-layer="layer1"
     showgrid="false"
     inkscape:export-bgcolor="#00000000" /><defs
     id="defs1"><linearGradient
       id="swatch43"
       inkscape:swatch="solid"><stop
         style="stop-color:#000000;stop-opacity:1;"
         offset="0"
         id="stop43" /></linearGradient></defs><g
     inkscape:label="background"
     inkscape:groupmode="layer"
     id="layer1"
     transform="translate(0.38235792,-19.988081)"
     style="display:inline"><circle
       id="path13"
       style="fill:#c0c0c0;stroke:#c0c0c0;stroke-width:0.0542195"
       cx="31.314598"
       cy="18.976767"
       r="0.01990886" /></g><g
     inkscape:groupmode="layer"
     id="layer3"
     inkscape:label="text"
     transform="translate(-0.12284474,-20.554035)"><g
       id="g6"
       transform="matrix(0.19680727,0,0,0.19680727,7.0073254,-12.306682)"><text
         xml:space="preserve"
         style="font-size:3.175px;fill:#ffffff;fill-opacity:0.0666667;stroke:#00755e;stroke-width:2.5;stroke-dasharray:none;stroke-opacity:1"
         x="105.90945"
         y="211.81891"
         id="text58-2"><tspan
           sodipodi:role="line"
           id="tspan58-3"
           style="stroke:#00755e;stroke-width:2.5;stroke-opacity:1"
           x="105.90945"
           y="211.81891" /></text><text
         xml:space="preserve"
         style="font-style:normal;font-variant:normal;font-weight:bold;font-stretch:normal;font-size:19.909px;font-family:Orbitron;-inkscape-font-specification:'Orbitron, Bold';font-variant-ligatures:normal;font-variant-caps:normal;font-variant-numeric:normal;font-variant-east-asian:normal;opacity:1;fill:#00755e;fill-opacity:1;stroke:none;stroke-width:15.6763;stroke-dasharray:none;stroke-opacity:1"
         x="84.082306"
         y="212.2477"
         id="text59"><tspan
           sodipodi:role="line"
           id="tspan59"
           style="font-style:normal;font-variant:normal;font-weight:bold;font-stretch:normal;font-size:19.909px;font-family:Orbitron;-inkscape-font-specification:'Orbitron, Bold';font-variant-ligatures:normal;font-variant-caps:normal;font-variant-numeric:normal;font-variant-east-asian:normal;fill:#00755e;fill-opacity:1;stroke:none;stroke-width:15.6763"
           x="84.082306"
           y="212.2477">HULLRS</tspan></text><text
         xml:space="preserve"
         style="font-style:normal;font-variant:normal;font-weight:normal;font-stretch:normal;font-size:5.62888px;font-family:Orbitron;-inkscape-font-specification:'Orbitron, Normal';font-variant-ligatures:normal;font-variant-caps:normal;font-variant-numeric:normal;font-variant-east-asian:normal;opacity:1;fill:#00755e;fill-opacity:1;stroke:none;stroke-width:4.43218;stroke-dasharray:none;stroke-opacity:1"
         x="87.263451"
         y="212.09865"
         id="text60"
         transform="scale(0.96435112,1.0369667)"><tspan
           sodipodi:role="line"
           id="tspan60"
           style="font-style:normal;font-variant:normal;font-weight:normal;font-stretch:normal;font-size:5.62888px;font-family:Orbitron;-inkscape-font-specification:'Orbitron, Normal';font-variant-ligatures:normal;font-variant-caps:normal;font-variant-numeric:normal;font-variant-east-asian:normal;stroke-width:4.43218"
           x="87.263451"
           y="212.09865">Hull University Robotics Society</tspan></text></g></g><g
     inkscape:groupmode="layer"
     id="layer2"
     inkscape:label="logo"
     style="display:inline"
     transform="translate(-0.12284474,-20.554035)"><g
       id="g4"
       transform="translate(-35.883333,-38.017276)"><path
         sodipodi:type="star"
         style="fill:#00755e;fill-opacity:1;stroke:#c0c0c0;stroke-width:2.08089;stroke-dasharray:none;stroke-opacity:1"
         id="path57"
         inkscape:flatsided="false"
         sodipodi:sides="12"
         sodipodi:cx="131.2244"
         sodipodi:cy="132.25768"
         sodipodi:r1="69.433624"
         sodipodi:r2="81.686615"
         sodipodi:arg1="0.96525166"
         sodipodi:arg2="1.227051"
         inkscape:rounded="0.62"
         inkscape:randomized="0"
         d="m 170.74671,189.34546 c -11.80904,8.17548 1.52998,14.97958 -11.99265,19.82008 -13.52262,4.84052 -7.53156,-8.8829 -21.84623,-7.70724 -14.31467,1.17566 -6.16479,13.73769 -20.29598,11.16838 -14.13119,-2.56931 -2.08107,-11.45861 -15.06577,-17.59779 -12.984694,-6.13918 -12.207704,8.81479 -23.161018,-0.47589 -10.953318,-9.29068 3.927038,-10.96398 -4.24845,-22.77301 -8.175485,-11.80904 -14.979577,1.52998 -19.820086,-11.99265 -4.84051,-13.52262 8.882905,-7.53156 7.707243,-21.84623 -1.175662,-14.31467 -13.737684,-6.16479 -11.168377,-20.29598 2.569308,-14.13119 11.458604,-2.08107 17.597786,-15.06577 6.13918,-12.984694 -8.814789,-12.207704 0.47589,-23.161019 9.290682,-10.953318 10.963979,3.927038 22.773016,-4.248449 11.809036,-8.175486 -1.529979,-14.979577 11.992646,-19.820086 13.52262,-4.840511 7.53156,8.882904 21.84623,7.707242 14.31467,-1.175661 6.16479,-13.737683 20.29598,-11.168376 14.13119,2.569308 2.08107,11.458604 15.06577,17.597785 12.9847,6.13918 12.20771,-8.814789 23.16102,0.475891 10.95332,9.290681 -3.92704,10.963979 4.24845,22.773015 8.17548,11.809037 14.97958,-1.529979 19.82009,11.992647 4.84051,13.52262 -8.88291,7.53156 -7.70725,21.84623 1.17566,14.31467 13.73769,6.16479 11.16838,20.29598 -2.56931,14.13119 -11.4586,2.08107 -17.59779,15.06577 -6.13918,12.98469 8.81479,12.2077 -0.47589,23.16102 -9.29068,10.95332 -10.96398,-3.92704 -22.77301,4.24845 z"
         inkscape:transform-center-x="0.56954892"
         inkscape:transform-center-y="-5.2127172"
         transform="matrix(0.05965771,-0.01134546,0.01134546,0.05965771,45.020071,60.557553)" /><circle
         style="fill:#00755e;fill-opacity:1;stroke:#c0c0c0;stroke-width:0.21061;stroke-dasharray:none;stroke-opacity:1"
         id="path58"
         r="3.7022524"
         cy="66.989517"
         cx="54.375732" /><rect
         style="fill:#c0c0c0;fill-opacity:1;stroke-width:0.21061"
         id="rect3-61"
         width="0.81356752"
         height="0.60181606"
         x="53.474335"
         y="68.873726"
         ry="0.30090803" /><rect
         style="fill:#bfc0c0;fill-opacity:1;stroke:#111111;stroke-width:0.00842439;stroke-dasharray:none;stroke-opacity:1"
         id="rect1"
         width="3.0648108"
         height="1.590984"
         x="52.727634"
         y="64.404671"
         ry="0.41235623" /><rect
         style="fill:#c0c0c0;fill-opacity:1;stroke:#111111;stroke-width:0.00842439;stroke-dasharray:none;stroke-opacity:1"
         id="rect2"
         width="2.9533629"
         height="2.7723286"
         x="52.816792"
         y="66.042953"
         ry="0.41235623" /><rect
         style="fill:#c0c0c0;fill-opacity:1;stroke-width:0.21061"
         id="rect3"
         width="0.81356752"
         height="0.60181606"
         x="54.399349"
         y="68.873726"
         ry="0.30090803" /><rect
         style="fill:#c0c0c0;fill-opacity:1;stroke-width:0.21061"
         id="rect3-1"
         width="0.81356752"
         height="0.60181606"
         x="54.399349"
         y="69.520119"
         ry="0.30090803" /><rect
         style="fill:#c0c0c0;fill-opacity:1;stroke-width:0.21061"
         id="rect3-6"
         width="0.81356752"
         height="0.60181606"
         x="53.474335"
         y="69.508972"
         ry="0.30090803" /><circle
         style="fill:#c0c0c0;fill-opacity:1;stroke:#111111;stroke-width:0.00842439;stroke-dasharray:none;stroke-opacity:1"
         id="path7"
         cx="54.311939"
         cy="64.02018"
         r="0.12816478" /><circle
         style="fill:#c0c0c0;fill-opacity:1;stroke:#00755e;stroke-width:0.126366;stroke-dasharray:none;stroke-opacity:1"
         id="path8"
         cx="53.758526"
         cy="65.223808"
         r="0.2396124" /><circle
         style="fill:#c0c0c0;fill-opacity:1;stroke:#00755e;stroke-width:0.126366;stroke-dasharray:none;stroke-opacity:1"
         id="path8-5"
         cx="54.825966"
         cy="65.232498"
         r="0.2396124" /><path
         style="fill:#c0c0c0;fill-opacity:1;stroke:#111111;stroke-width:0.00842439;stroke-dasharray:none;stroke-opacity:1"
         id="path10"
         sodipodi:type="arc"
         sodipodi:cx="52.628796"
         sodipodi:cy="65.184807"
         sodipodi:rx="0.2868371"
         sodipodi:ry="0.28553328"
         sodipodi:start="1.5707963"
         sodipodi:end="4.712389"
         sodipodi:arc-type="slice"
         d="m 52.628796,65.47034 a 0.2868371,0.28553328 0 0 1 -0.248409,-0.142767 0.2868371,0.28553328 0 0 1 0,-0.285533 0.2868371,0.28553328 0 0 1 0.248409,-0.142766 v 0.285533 z" /><path
         style="fill:#c0c0c0;fill-opacity:1;stroke:#111111;stroke-width:8.42439e-05;stroke-dasharray:none;stroke-opacity:1"
         id="path10-4"
         sodipodi:type="arc"
         sodipodi:cx="-55.870941"
         sodipodi:cy="65.1922"
         sodipodi:rx="0.2868371"
         sodipodi:ry="0.28553328"
         sodipodi:start="1.5707963"
         sodipodi:end="4.712389"
         sodipodi:arc-type="slice"
         d="m -55.870941,65.477733 a 0.2868371,0.28553328 0 0 1 -0.248408,-0.142767 0.2868371,0.28553328 0 0 1 0,-0.285533 0.2868371,0.28553328 0 0 1 0.248408,-0.142767 V 65.1922 Z"
         transform="scale(-1,1)" /><circle
         id="path12"
         style="fill:#c0c0c0;stroke:#c0c0c0;stroke-width:0.0222895"
         cx="55.903893"
         cy="65.385414"
         r="0.008415902" /><circle
         id="path13-6"
         style="fill:#c0c0c0;stroke:#c0c0c0;stroke-width:0.0222895"
         cx="56.415665"
         cy="63.932518"
         r="0.008184487" /><rect
         style="opacity:1;fill:#c0c0c0;fill-opacity:1;stroke:#111111;stroke-width:0.0113771;stroke-dasharray:none;stroke-opacity:1"
         id="rect14-0"
         width="0.52545571"
         height="0.38804826"
         x="52.150101"
         y="67.059235"
         ry="0.022239516"
         rx="0.11548278" /><rect
         style="fill:#c0c0c0;fill-opacity:1;stroke:#111111;stroke-width:0.0112225;stroke-dasharray:none;stroke-opacity:1"
         id="rect14"
         width="0.52166992"
         height="0.38032225"
         x="52.150246"
         y="66.719978"
         ry="0.016601155"
         rx="0.11465076" /><circle
         style="fill:#c0c0c0;fill-opacity:1;stroke:#111110;stroke-width:0.00842439;stroke-dasharray:none;stroke-opacity:1"
         id="path14"
         cx="52.411568"
         cy="66.594208"
         r="0.29805356" /><rect
         style="fill:#00755e;fill-opacity:1;stroke:#00755e;stroke-width:0.126366;stroke-dasharray:none;stroke-opacity:1"
         id="rect15"
         width="0.19159609"
         height="0.60161161"
         x="52.317593"
         y="67.71991"
         rx="0.092750311"
         ry="0.058221497" /><rect
         style="fill:#c0c0c0;fill-opacity:1;stroke:#111111;stroke-width:0.0113771;stroke-dasharray:none;stroke-opacity:1"
         id="rect14-0-2"
         width="0.52545571"
         height="0.38804826"
         x="55.900108"
         y="67.066566"
         ry="0.022239516"
         rx="0.11548278" /><circle
         style="fill:#c0c0c0;fill-opacity:1;stroke:#111110;stroke-width:0.00842439;stroke-dasharray:none;stroke-opacity:1"
         id="path14-9-4"
         cx="56.163696"
         cy="67.739532"
         r="0.29805356" /><rect
         style="fill:#c0c0c0;fill-opacity:1;stroke:#111111;stroke-width:0.0112225;stroke-dasharray:none;stroke-opacity:1"
         id="rect14-6"
         width="0.52166992"
         height="0.38032225"
         x="55.900253"
         y="66.727318"
         ry="0.016601155"
         rx="0.11465076" /><circle
         style="fill:#c0c0c0;fill-opacity:1;stroke:#111110;stroke-width:0.00842439;stroke-dasharray:none;stroke-opacity:1"
         id="path14-0"
         cx="56.161579"
         cy="66.601547"
         r="0.29805356" /><rect
         style="fill:#00755e;fill-opacity:1;stroke:#00755e;stroke-width:0.126366;stroke-dasharray:none;stroke-opacity:1"
         id="rect15-4"
         width="0.19159609"
         height="0.60161161"
         x="56.067604"
         y="67.727249"
         rx="0.092750311"
         ry="0.058221497" /><path
         style="opacity:1;fill:#c0c0c0;fill-opacity:1;stroke:#c0c0c0;stroke-width:0.0421219;stroke-dasharray:none;stroke-opacity:1"
         d="m 54.307484,64.408277 c 0.0079,-0.29946 0.0079,-0.29946 0.0079,-0.29946 v 0"
         id="path16" /><path
         style="opacity:1;fill:#00755e;fill-opacity:1;stroke:#00755e;stroke-width:0.168488;stroke-dasharray:none;stroke-opacity:1"
         d="m 54.012069,65.725325 c 0.110046,0.0043 0.260274,0.01086 0.382131,-0.0014 0.04222,-0.0042 0.175761,-0.02656 0.230831,-0.04879"
         id="path17"
         sodipodi:nodetypes="csc" /><circle
         style="opacity:1;fill:#00755e;fill-opacity:1;stroke:#00755e;stroke-width:0.204644;stroke-dasharray:none;stroke-opacity:1"
         id="path19"
         cx="54.332481"
         cy="67.458336"
         r="0.90693706" /><path
         sodipodi:type="star"
         style="opacity:1;fill:#c0c0c0;fill-opacity:1;stroke:#c0c0c0;stroke-width:2;stroke-dasharray:none;stroke-opacity:1"
         id="path18"
         inkscape:flatsided="false"
         sodipodi:sides="8"
         sodipodi:cx="129.77812"
         sodipodi:cy="141.28751"
         sodipodi:r1="10.130467"
         sodipodi:r2="7.0913267"
         sodipodi:arg1="0.8593372"
         sodipodi:arg2="1.2520363"
         inkscape:rounded="0.61"
         inkscape:randomized="0"
         d="m 136.39271,148.96042 c -2.07514,1.78892 -1.79047,-1.79743 -4.39224,-0.93881 -2.60177,0.85861 -0.2384,3.57108 -2.9707,3.36868 -2.7323,-0.20239 0.005,-2.53703 -2.44194,-3.76962 -2.44686,-1.23259 -2.69371,2.35656 -4.48262,0.28142 -1.78892,-2.07514 1.79743,-1.79047 0.93881,-4.39224 -0.85862,-2.60177 -3.57108,-0.2384 -3.36869,-2.9707 0.2024,-2.7323 2.53704,0.005 3.76963,-2.44194 1.23259,-2.44686 -2.35656,-2.69371 -0.28142,-4.48262 2.07514,-1.78891 1.79047,1.79744 4.39224,0.93882 2.60176,-0.85862 0.2384,-3.57108 2.9707,-3.36869 2.7323,0.20239 -0.005,2.53703 2.44193,3.76962 2.44687,1.23259 2.69371,-2.35656 4.48263,-0.28142 1.78891,2.07514 -1.79744,1.79047 -0.93882,4.39224 0.85862,2.60177 3.57108,0.2384 3.36869,2.9707 -0.20239,2.7323 -2.53703,-0.005 -3.76962,2.44194 -1.2326,2.44686 2.35656,2.69371 0.28142,4.48262 z"
         inkscape:transform-center-x="1.700347e-06"
         inkscape:transform-center-y="-1.9422506e-06"
         transform="matrix(0.0841327,-0.00432674,0.00432674,0.0841327,42.802582,56.121808)" /><circle
         style="opacity:1;fill:#00755e;fill-opacity:1;stroke:none;stroke-width:0.246413;stroke-dasharray:none;stroke-opacity:1"
         id="path20"
         cx="54.340839"
         cy="67.444405"
         r="0.32598433" /><circle
         style="fill:#c0c0c0;fill-opacity:1;stroke:#111110;stroke-width:0.00842439;stroke-dasharray:none;stroke-opacity:1"
         id="path14-9"
         cx="52.413685"
         cy="67.732201"
         r="0.29805356" /></g></g></svg>
