<?xml version="1.0" encoding="UTF-8" standalone="no"?>
<!-- Created with Inkscape (http://www.inkscape.org/) -->

<svg
   width="1920"
   height="500"
   viewBox="0 0 507.99999 132.29167"
   version="1.1"
   id="svg1"
   xml:space="preserve"
   xmlns="http://www.w3.org/2000/svg"
   xmlns:svg="http://www.w3.org/2000/svg"><defs
     id="defs1"><linearGradient
       id="swatch43"><stop
         style="stop-color:#000000;stop-opacity:1;"
         offset="0"
         id="stop43" /></linearGradient></defs><g
     id="layer1"
     transform="translate(0.38235792,-19.988081)"
     style="display:inline"><path
       style="fill:#ffffff;fill-opacity:0.0666667;stroke:#00755e;stroke-width:0.697185;stroke-dasharray:none;stroke-opacity:1"
       d="M -0.08758728,151.83369 26.739906,127.38333"
       id="path43" /><path
       style="fill:#ffffff;fill-opacity:0.0666667;stroke:#00755e;stroke-width:0.57498;stroke-dasharray:none;stroke-opacity:1"
       d="M 0.13067172,146.92332 22.146521,126.65871"
       id="path43-5" /><path
       style="fill:#ffffff;fill-opacity:0.0666667;stroke:#00755e;stroke-width:0.697185;stroke-dasharray:none;stroke-opacity:1"
       d="M 0.39003072,141.26621 27.217522,116.81585"
       id="path43-2" /><path
       style="fill:#ffffff;fill-opacity:0.0666667;stroke:#00755e;stroke-width:0.697185;stroke-dasharray:none;stroke-opacity:1"
       d="m 27.164392,117.02588 c 0.08487,-24.025885 0.08487,-24.025885 0.08487,-24.025885 h 0.08487"
       id="path44" /><path
       style="fill:#ffffff;fill-opacity:0.0666667;stroke:#00755e;stroke-width:0.697185;stroke-dasharray:none;stroke-opacity:1"
       d="M 0.08220772,135.02407 21.136696,115.83733 V 87.311887"
       id="path45" /><circle
       style="fill:#c0c0c0;fill-opacity:1;stroke:#00755e;stroke-width:0.929582;stroke-dasharray:none;stroke-opacity:1"
       id="path21-3"
       cx="21.156487"
       cy="87.643089"
       r="1.076038" /><path
       style="fill:#ffffff;fill-opacity:0.0666667;stroke:#00755e;stroke-width:0.697185;stroke-dasharray:none;stroke-opacity:1"
       d="M 0.08220772,127.72291 14.684513,113.4602"
       id="path46" /><path
       style="fill:#ffffff;fill-opacity:0.0666667;stroke:#00755e;stroke-width:0.675887;stroke-dasharray:none;stroke-opacity:1"
       d="M 0.24281972,120.233 13.193121,108.39756 13.491061,76.341866 v 0 0 l 0.215598,-26.289521"
       id="path47" /><path
       style="fill:#ffffff;fill-opacity:0.0666667;stroke:#00755e;stroke-width:0.697185;stroke-dasharray:none;stroke-opacity:1"
       d="M 19.909564,63.167868 19.776069,42.752004"
       id="path48" /><path
       style="fill:#ffffff;fill-opacity:0.0666667;stroke:#00755e;stroke-width:0.697185;stroke-dasharray:none;stroke-opacity:1"
       d="m 0.15253872,78.293159 5.76300798,-2.881506 3.12163,-4.322248"
       id="path49" /><path
       style="fill:#ffffff;fill-opacity:0.0666667;stroke:#00755e;stroke-width:0.676852;stroke-dasharray:none;stroke-opacity:1"
       d="m -0.08419028,100.23986 3.84103798,0.0493"
       id="path50" /><path
       style="fill:#ffffff;fill-opacity:0.0666667;stroke:#00755e;stroke-width:0.748512;stroke-dasharray:none;stroke-opacity:1"
       d="M -0.08386728,104.70694 H 3.5142937"
       id="path51" /><path
       style="fill:#ffffff;fill-opacity:0.0666667;stroke:#00755e;stroke-width:0.807995;stroke-dasharray:none;stroke-opacity:1"
       d="M 276.07076,151.98378 V 141.88964"
       id="path52" /><path
       style="fill:#ffffff;fill-opacity:0.0666667;stroke:#00755e;stroke-width:0.807995;stroke-dasharray:none;stroke-opacity:1"
       d="m 293.67117,151.89758 -0.0817,-9.68984"
       id="path53" /><path
       style="fill:#ffffff;fill-opacity:0.0666667;stroke:#00755e;stroke-width:0.807995;stroke-dasharray:none;stroke-opacity:1"
       d="m 284.74929,152.03934 0.042,-9.51961"
       id="path54" /><path
       style="fill:#ffffff;fill-opacity:0.0666667;stroke:#00755e;stroke-width:0.807995;stroke-dasharray:none;stroke-opacity:1"
       d="m 280.29576,152.09474 v -4.7844"
       id="path55" /><path
       style="fill:#ffffff;fill-opacity:0.0666667;stroke:#00755e;stroke-width:0.807995;stroke-dasharray:none;stroke-opacity:1"
       d="m 289.85514,152.06594 -0.0121,-4.44412"
       id="path56" /><circle
       style="fill:#c0c0c0;fill-opacity:1;stroke:#00755e;stroke-width:0.929582;stroke-dasharray:none;stroke-opacity:1"
       id="path21"
       cx="19.803749"
       cy="42.54174"
       r="1.076038" /><circle
       style="fill:#c0c0c0;fill-opacity:1;stroke:#00755e;stroke-width:0.929582;stroke-dasharray:none;stroke-opacity:1"
       id="path21-7"
       cx="9.4737806"
       cy="70.672447"
       r="1.076038" /><circle
       style="fill:#c0c0c0;fill-opacity:1;stroke:#00755e;stroke-width:0.929582;stroke-dasharray:none;stroke-opacity:1"
       id="path21-6"
       cx="27.182297"
       cy="92.808075"
       r="1.076038" /><circle
       style="fill:#c0c0c0;fill-opacity:1;stroke:#00755e;stroke-width:0.929582;stroke-dasharray:none;stroke-opacity:1"
       id="path21-60"
       cx="13.438201"
       cy="82.557617"
       r="1.076038" /><circle
       style="fill:#c0c0c0;fill-opacity:1;stroke:#00755e;stroke-width:0.929582;stroke-dasharray:none;stroke-opacity:1"
       id="path21-8"
       cx="3.6939197"
       cy="100.18662"
       r="1.076038" /><circle
       style="fill:#c0c0c0;fill-opacity:1;stroke:#00755e;stroke-width:0.929582;stroke-dasharray:none;stroke-opacity:1"
       id="path21-84"
       cx="7.014267"
       cy="100.18662"
       r="1.076038" /><circle
       style="fill:#c0c0c0;fill-opacity:1;stroke:#00755e;stroke-width:0.929582;stroke-dasharray:none;stroke-opacity:1"
       id="path21-31"
       cx="3.2020183"
       cy="104.73672"
       r="1.076038" /><circle
       style="fill:#c0c0c0;fill-opacity:1;stroke:#00755e;stroke-width:0.929582;stroke-dasharray:none;stroke-opacity:1"
       id="path21-9"
       cx="6.8912888"
       cy="104.85969"
       r="1.076038" /><circle
       style="fill:#c0c0c0;fill-opacity:1;stroke:#00755e;stroke-width:0.929582;stroke-dasharray:none;stroke-opacity:1"
       id="path21-95"
       cx="14.638762"
       cy="113.46801"
       r="1.076038" /><circle
       style="fill:#c0c0c0;fill-opacity:1;stroke:#00755e;stroke-width:0.929582;stroke-dasharray:none;stroke-opacity:1"
       id="path21-5"
       cx="22.140289"
       cy="126.74938"
       r="1.076038" /><circle
       style="fill:#c0c0c0;fill-opacity:1;stroke:#00755e;stroke-width:0.929582;stroke-dasharray:none;stroke-opacity:1"
       id="path21-66"
       cx="26.690384"
       cy="127.36423"
       r="1.076038" /><circle
       style="fill:#c0c0c0;fill-opacity:1;stroke:#00755e;stroke-width:0.929582;stroke-dasharray:none;stroke-opacity:1"
       id="path21-1"
       cx="13.654956"
       cy="50.135494"
       r="1.076038" /><path
       style="fill:#ffffff;fill-opacity:0.0666667;stroke:#00755e;stroke-width:0.70267;stroke-dasharray:none;stroke-opacity:1"
       d="M 507.4112,152.07609 480.37261,127.43332"
       id="path43-0" /><path
       style="fill:#ffffff;fill-opacity:0.0666667;stroke:#00755e;stroke-width:0.579503;stroke-dasharray:none;stroke-opacity:1"
       d="M 507.19123,147.12708 485.00214,126.703"
       id="path43-5-8" /><path
       style="fill:#ffffff;fill-opacity:0.0666667;stroke:#00755e;stroke-width:0.70267;stroke-dasharray:none;stroke-opacity:1"
       d="M 506.92982,141.42545 479.89124,116.78269"
       id="path43-2-6" /><path
       style="fill:#ffffff;fill-opacity:0.0666667;stroke:#00755e;stroke-width:0.70267;stroke-dasharray:none;stroke-opacity:1"
       d="m 479.94478,116.99437 c -0.0856,-24.21493 -0.0856,-24.21493 -0.0856,-24.21493 h -0.0856"
       id="path44-3" /><path
       style="fill:#ffffff;fill-opacity:0.0666667;stroke:#00755e;stroke-width:0.70267;stroke-dasharray:none;stroke-opacity:1"
       d="M 507.24007,135.13418 486.01991,115.79647 V 87.046576"
       id="path45-9" /><circle
       style="fill:#c0c0c0;fill-opacity:1;stroke:#00755e;stroke-width:0.936895;stroke-dasharray:none;stroke-opacity:1"
       id="path21-3-3"
       cx="-486"
       cy="87.380424"
       transform="scale(-1,1)"
       r="1.084505" /><circle
       style="fill:#c0c0c0;fill-opacity:1;stroke:#00755e;stroke-width:0.936895;stroke-dasharray:none;stroke-opacity:1"
       id="path21-3-3-9"
       cx="-479.80286"
       cy="92.988838"
       transform="scale(-1,1)"
       r="1.084505" /><path
       style="fill:#ffffff;fill-opacity:0.0666667;stroke:#00755e;stroke-width:0.70267;stroke-dasharray:none;stroke-opacity:1"
       d="M 507.24007,127.77559 492.52286,113.40063"
       id="path46-7" /><path
       style="fill:#ffffff;fill-opacity:0.0666667;stroke:#00755e;stroke-width:0.681203;stroke-dasharray:none;stroke-opacity:1"
       d="M 507.07819,120.22673 494.026,108.29815 493.72575,75.990238 v 0 0 l -0.21727,-26.496384"
       id="path47-6" /><path
       style="fill:#ffffff;fill-opacity:0.0666667;stroke:#00755e;stroke-width:0.70267;stroke-dasharray:none;stroke-opacity:1"
       d="m 487.2567,62.712574 0.13454,-20.576502"
       id="path48-4" /><path
       style="fill:#ffffff;fill-opacity:0.0666667;stroke:#00755e;stroke-width:0.70267;stroke-dasharray:none;stroke-opacity:1"
       d="m 507.16918,77.956882 -5.80835,-2.904177 -3.1462,-4.356258"
       id="path49-6" /><circle
       style="fill:#c0c0c0;fill-opacity:1;stroke:#00755e;stroke-width:0.936895;stroke-dasharray:none;stroke-opacity:1"
       id="path21-0"
       cx="-487.36337"
       cy="41.92416"
       transform="scale(-1,1)"
       r="1.084505" /><circle
       style="fill:#c0c0c0;fill-opacity:1;stroke:#00755e;stroke-width:0.936895;stroke-dasharray:none;stroke-opacity:1"
       id="path21-7-1"
       cx="-497.7746"
       cy="70.276199"
       transform="scale(-1,1)"
       r="1.084505" /><circle
       style="fill:#c0c0c0;fill-opacity:1;stroke:#00755e;stroke-width:0.936895;stroke-dasharray:none;stroke-opacity:1"
       id="path21-60-3"
       cx="-493.77896"
       cy="82.254906"
       transform="scale(-1,1)"
       r="1.084505" /><circle
       style="fill:#c0c0c0;fill-opacity:1;stroke:#00755e;stroke-width:0.936895;stroke-dasharray:none;stroke-opacity:1"
       id="path21-8-9"
       cx="-503.59995"
       cy="100.02263"
       transform="scale(-1,1)"
       r="1.084505" /><circle
       style="fill:#c0c0c0;fill-opacity:1;stroke:#00755e;stroke-width:0.936895;stroke-dasharray:none;stroke-opacity:1"
       id="path21-84-5"
       cx="-500.25351"
       cy="100.02263"
       transform="scale(-1,1)"
       r="1.084505" /><circle
       style="fill:#c0c0c0;fill-opacity:1;stroke:#00755e;stroke-width:0.936895;stroke-dasharray:none;stroke-opacity:1"
       id="path21-31-3"
       cx="-504.09573"
       cy="104.60854"
       transform="scale(-1,1)"
       r="1.084505" /><circle
       style="fill:#c0c0c0;fill-opacity:1;stroke:#00755e;stroke-width:0.936895;stroke-dasharray:none;stroke-opacity:1"
       id="path21-9-5"
       cx="-500.37744"
       cy="104.7325"
       transform="scale(-1,1)"
       r="1.084505" /><circle
       style="fill:#c0c0c0;fill-opacity:1;stroke:#00755e;stroke-width:0.936895;stroke-dasharray:none;stroke-opacity:1"
       id="path21-95-4"
       cx="-492.569"
       cy="113.40852"
       transform="scale(-1,1)"
       r="1.084505" /><circle
       style="fill:#c0c0c0;fill-opacity:1;stroke:#00755e;stroke-width:0.936895;stroke-dasharray:none;stroke-opacity:1"
       id="path21-5-5"
       cx="-485.00845"
       cy="126.79439"
       transform="scale(-1,1)"
       r="1.084505" /><circle
       style="fill:#c0c0c0;fill-opacity:1;stroke:#00755e;stroke-width:0.936895;stroke-dasharray:none;stroke-opacity:1"
       id="path21-66-3"
       cx="-480.42255"
       cy="127.41414"
       transform="scale(-1,1)"
       r="1.084505" /><circle
       style="fill:#c0c0c0;fill-opacity:1;stroke:#00755e;stroke-width:0.936895;stroke-dasharray:none;stroke-opacity:1"
       id="path21-1-2"
       cx="-493.56052"
       cy="49.577652"
       transform="scale(-1,1)"
       r="1.084505" /><path
       style="fill:none;fill-opacity:1;stroke:#00755e;stroke-width:0.807995;stroke-dasharray:none;stroke-opacity:1"
       d="M 264.03634,20.054869 277.6722,31.866643 V 51.044182"
       id="path22" /><path
       style="fill:none;fill-opacity:1;stroke:#00755e;stroke-width:0.807995;stroke-dasharray:none;stroke-opacity:1"
       d="m 280.88576,20.061309 v 30.97868"
       id="path23" /><path
       style="fill:none;fill-opacity:1;stroke:#00755e;stroke-width:0.807995;stroke-dasharray:none;stroke-opacity:1"
       d="m 299.66175,20.095123 -8.70517,17.432682 0.004,13.540075"
       id="path25" /><path
       style="fill:none;fill-opacity:1;stroke:#00755e;stroke-width:0.807995;stroke-dasharray:none;stroke-opacity:1"
       d="m 284.49009,47.1325 0.003,-26.948651"
       id="path26" /><path
       style="fill:none;fill-opacity:1;stroke:#00755e;stroke-width:0.807995;stroke-dasharray:none;stroke-opacity:1"
       d="m 287.71521,51.068139 0.007,-4.946885 0.0372,-26.068898"
       id="path27" /><path
       style="fill:none;fill-opacity:1;stroke:#00755e;stroke-width:0.708407;stroke-dasharray:none;stroke-opacity:1"
       d="m 507.58493,104.60757 -2.63198,-0.0153"
       id="path28" /><path
       style="fill:none;fill-opacity:1;stroke:#00755e;stroke-width:0.70267;stroke-dasharray:none;stroke-opacity:1"
       d="m 507.56165,100.03143 -3.30847,0.0436"
       id="path29" /><path
       style="fill:none;fill-opacity:1;stroke:#00755e;stroke-width:0.807995;stroke-dasharray:none;stroke-opacity:1"
       d="m 295.65837,20.07443 -4.9409,8.624678 0.005,0.09251 v 0"
       id="path30" /><circle
       style="fill:#c0c0c0;fill-opacity:1;stroke:#00755e;stroke-width:0.807995;stroke-dasharray:none;stroke-opacity:1"
       id="path21-3-3-95"
       cx="-290.89142"
       cy="28.653446"
       transform="scale(-1,1)"
       r="0.81133026" /><path
       style="fill:none;fill-opacity:1;stroke:#00755e;stroke-width:0.807995;stroke-dasharray:none;stroke-opacity:1"
       d="m 275.33708,20.192439 0.046,4.867984"
       id="path31" /><circle
       style="fill:#c0c0c0;fill-opacity:1;stroke:#00755e;stroke-width:0.807995;stroke-dasharray:none;stroke-opacity:1"
       id="path21-3-3-3"
       cx="-275.40659"
       cy="25.129948"
       transform="scale(-1,1)"
       r="0.81133026" /><circle
       style="fill:#c0c0c0;fill-opacity:1;stroke:#00755e;stroke-width:0.807995;stroke-dasharray:none;stroke-opacity:1"
       id="path21-3-3-3-6"
       cx="-277.7247"
       cy="50.907078"
       transform="scale(-1,1)"
       r="0.81133026" /><circle
       style="fill:#c0c0c0;fill-opacity:1;stroke:#00755e;stroke-width:0.807995;stroke-dasharray:none;stroke-opacity:1"
       id="path21-3-3-3-1"
       cx="-280.87732"
       cy="50.999813"
       transform="scale(-1,1)"
       r="0.81133026" /><circle
       style="fill:#c0c0c0;fill-opacity:1;stroke:#00755e;stroke-width:0.807995;stroke-dasharray:none;stroke-opacity:1"
       id="path21-3-3-3-8"
       cx="-284.58624"
       cy="47.105423"
       transform="scale(-1,1)"
       r="0.81133026" /><circle
       style="fill:#c0c0c0;fill-opacity:1;stroke:#00755e;stroke-width:0.807995;stroke-dasharray:none;stroke-opacity:1"
       id="path21-3-3-3-82"
       cx="-287.73883"
       cy="51.092522"
       transform="scale(-1,1)"
       r="0.81133026" /><circle
       style="fill:#c0c0c0;fill-opacity:1;stroke:#00755e;stroke-width:0.807995;stroke-dasharray:none;stroke-opacity:1"
       id="path21-3-3-3-3"
       cx="-290.98416"
       cy="51.185249"
       transform="scale(-1,1)"
       r="0.81133026" /><circle
       style="display:inline;fill:#c0c0c0;fill-opacity:1;stroke:#00755e;stroke-width:0.807995;stroke-dasharray:none;stroke-opacity:1"
       id="path21-3-3-3-3-2"
       cx="-276.0657"
       cy="141.76582"
       transform="scale(-1,1)"
       r="0.81133026" /><circle
       style="display:inline;fill:#c0c0c0;fill-opacity:1;stroke:#00755e;stroke-width:0.807995;stroke-dasharray:none;stroke-opacity:1"
       id="path21-3-3-3-3-20"
       cx="-280.34137"
       cy="147.44662"
       transform="scale(-1,1)"
       r="0.81133026" /><circle
       style="display:inline;fill:#c0c0c0;fill-opacity:1;stroke:#00755e;stroke-width:0.807995;stroke-dasharray:none;stroke-opacity:1"
       id="path21-3-3-3-3-4"
       cx="-284.77075"
       cy="142.64024"
       transform="scale(-1,1)"
       r="0.81133026" /><circle
       style="display:inline;fill:#c0c0c0;fill-opacity:1;stroke:#00755e;stroke-width:0.807995;stroke-dasharray:none;stroke-opacity:1"
       id="path21-3-3-3-3-1"
       cx="-289.84949"
       cy="147.37622"
       transform="scale(-1,1)"
       r="0.81133026" /><circle
       style="display:inline;fill:#c0c0c0;fill-opacity:1;stroke:#00755e;stroke-width:0.807995;stroke-dasharray:none;stroke-opacity:1"
       id="path21-3-3-3-3-6"
       cx="-293.55914"
       cy="142.21507"
       transform="scale(-1,1)"
       r="0.81133026" /></g><g
     id="layer3"
     transform="translate(-0.12284474,-20.554035)"><g
       id="g6"
       transform="matrix(1.5901932,0,0,1.5901932,102.82858,-245.69792)"><text
         xml:space="preserve"
         style="font-size:3.175px;fill:#ffffff;fill-opacity:0.0666667;stroke:#00755e;stroke-width:2.5;stroke-dasharray:none;stroke-opacity:1"
         x="105.90945"
         y="211.81891"
         id="text58-2"><tspan
           id="tspan58-3"
           style="stroke:#00755e;stroke-width:2.5;stroke-opacity:1"
           x="105.90945"
           y="211.81891" /></text><text
         xml:space="preserve"
         style="font-style:normal;font-variant:normal;font-weight:bold;font-stretch:normal;font-size:19.909px;font-family:Orbitron;-inkscape-font-specification:'Orbitron, Bold';font-variant-ligatures:normal;font-variant-caps:normal;font-variant-numeric:normal;font-variant-east-asian:normal;opacity:1;fill:#00755e;fill-opacity:1;stroke:none;stroke-width:15.6763;stroke-dasharray:none;stroke-opacity:1"
         x="84.082306"
         y="212.2477"
         id="text59"><tspan
           id="tspan59"
           style="font-style:normal;font-variant:normal;font-weight:bold;font-stretch:normal;font-size:19.909px;font-family:Orbitron;-inkscape-font-specification:'Orbitron, Bold';font-variant-ligatures:normal;font-variant-caps:normal;font-variant-numeric:normal;font-variant-east-asian:normal;fill:#00755e;fill-opacity:1;stroke:none;stroke-width:15.6763"
           x="84.082306"
           y="212.2477">HULLRS</tspan></text><text
         xml:space="preserve"
         style="font-style:normal;font-variant:normal;font-weight:normal;font-stretch:normal;font-size:5.62888px;font-family:Orbitron;-inkscape-font-specification:'Orbitron, Normal';font-variant-ligatures:normal;font-variant-caps:normal;font-variant-numeric:normal;font-variant-east-asian:normal;opacity:1;fill:#00755e;fill-opacity:1;stroke:none;stroke-width:4.43218;stroke-dasharray:none;stroke-opacity:1"
         x="87.263451"
         y="212.09865"
         id="text60"
         transform="scale(0.96435112,1.0369667)"><tspan
           id="tspan60"
           style="font-style:normal;font-variant:normal;font-weight:normal;font-stretch:normal;font-size:5.62888px;font-family:Orbitron;-inkscape-font-specification:'Orbitron, Normal';font-variant-ligatures:normal;font-variant-caps:normal;font-variant-numeric:normal;font-variant-east-asian:normal;stroke-width:4.43218"
           x="87.263451"
           y="212.09865">Hull University Robotics Society</tspan></text></g></g><g
     id="layer2"
     style="display:inline"
     transform="translate(-0.12284474,-20.554035)"><g
       id="g4"
       transform="matrix(8.0799517,0,0,8.0799517,-243.72588,-453.43828)"><path
         style="fill:#00755e;fill-opacity:1;stroke:#c0c0c0;stroke-width:2.08089;stroke-dasharray:none;stroke-opacity:1"
         id="path57"
         d="m 170.74671,189.34546 c -11.80904,8.17548 1.52998,14.97958 -11.99265,19.82008 -13.52262,4.84052 -7.53156,-8.8829 -21.84623,-7.70724 -14.31467,1.17566 -6.16479,13.73769 -20.29598,11.16838 -14.13119,-2.56931 -2.08107,-11.45861 -15.06577,-17.59779 -12.984694,-6.13918 -12.207704,8.81479 -23.161018,-0.47589 -10.953318,-9.29068 3.927038,-10.96398 -4.24845,-22.77301 -8.175485,-11.80904 -14.979577,1.52998 -19.820086,-11.99265 -4.84051,-13.52262 8.882905,-7.53156 7.707243,-21.84623 -1.175662,-14.31467 -13.737684,-6.16479 -11.168377,-20.29598 2.569308,-14.13119 11.458604,-2.08107 17.597786,-15.06577 6.13918,-12.984694 -8.814789,-12.207704 0.47589,-23.161019 9.290682,-10.953318 10.963979,3.927038 22.773016,-4.248449 11.809036,-8.175486 -1.529979,-14.979577 11.992646,-19.820086 13.52262,-4.840511 7.53156,8.882904 21.84623,7.707242 14.31467,-1.175661 6.16479,-13.737683 20.29598,-11.168376 14.13119,2.569308 2.08107,11.458604 15.06577,17.597785 12.9847,6.13918 12.20771,-8.814789 23.16102,0.475891 10.95332,9.290681 -3.92704,10.963979 4.24845,22.773015 8.17548,11.809037 14.97958,-1.529979 19.82009,11.992647 4.84051,13.52262 -8.88291,7.53156 -7.70725,21.84623 1.17566,14.31467 13.73769,6.16479 11.16838,20.29598 -2.56931,14.13119 -11.4586,2.08107 -17.59779,15.06577 -6.13918,12.98469 8.81479,12.2077 -0.47589,23.16102 -9.29068,10.95332 -10.96398,-3.92704 -22.77301,4.24845 z"
         transform="matrix(0.05965771,-0.01134546,0.01134546,0.05965771,45.020071,60.557553)" /><circle
         style="fill:#00755e;fill-opacity:1;stroke:#c0c0c0;stroke-width:0.21061;stroke-dasharray:none;stroke-opacity:1"
         id="path58"
         r="3.7022524"
         cy="66.989517"
         cx="54.375732" /><rect
         style="fill:#c0c0c0;fill-opacity:1;stroke-width:0.21061"
         id="rect3-61"
         width="0.81356752"
         height="0.60181606"
         x="53.474335"
         y="68.873726"
         ry="0.30090803" /><rect
         style="fill:#bfc0c0;fill-opacity:1;stroke:#111111;stroke-width:0.00842439;stroke-dasharray:none;stroke-opacity:1"
         id="rect1"
         width="3.0648108"
         height="1.590984"
         x="52.727634"
         y="64.404671"
         ry="0.41235623" /><rect
         style="fill:#c0c0c0;fill-opacity:1;stroke:#111111;stroke-width:0.00842439;stroke-dasharray:none;stroke-opacity:1"
         id="rect2"
         width="2.9533629"
         height="2.7723286"
         x="52.816792"
         y="66.042953"
         ry="0.41235623" /><rect
         style="fill:#c0c0c0;fill-opacity:1;stroke-width:0.21061"
         id="rect3"
         width="0.81356752"
         height="0.60181606"
         x="54.399349"
         y="68.873726"
         ry="0.30090803" /><rect
         style="fill:#c0c0c0;fill-opacity:1;stroke-width:0.21061"
         id="rect3-1"
         width="0.81356752"
         height="0.60181606"
         x="54.399349"
         y="69.520119"
         ry="0.30090803" /><rect
         style="fill:#c0c0c0;fill-opacity:1;stroke-width:0.21061"
         id="rect3-6"
         width="0.81356752"
         height="0.60181606"
         x="53.474335"
         y="69.508972"
         ry="0.30090803" /><circle
         style="fill:#c0c0c0;fill-opacity:1;stroke:#111111;stroke-width:0.00842439;stroke-dasharray:none;stroke-opacity:1"
         id="path7"
         cx="54.311939"
         cy="64.02018"
         r="0.12816478" /><circle
         style="fill:#c0c0c0;fill-opacity:1;stroke:#00755e;stroke-width:0.126366;stroke-dasharray:none;stroke-opacity:1"
         id="path8"
         cx="53.758526"
         cy="65.223808"
         r="0.2396124" /><circle
         style="fill:#c0c0c0;fill-opacity:1;stroke:#00755e;stroke-width:0.126366;stroke-dasharray:none;stroke-opacity:1"
         id="path8-5"
         cx="54.825966"
         cy="65.232498"
         r="0.2396124" /><path
         style="fill:#c0c0c0;fill-opacity:1;stroke:#111111;stroke-width:0.00842439;stroke-dasharray:none;stroke-opacity:1"
         id="path10"
         d="m 52.628796,65.47034 a 0.2868371,0.28553328 0 0 1 -0.248409,-0.142767 0.2868371,0.28553328 0 0 1 0,-0.285533 0.2868371,0.28553328 0 0 1 0.248409,-0.142766 v 0.285533 z" /><path
         style="fill:#c0c0c0;fill-opacity:1;stroke:#111111;stroke-width:8.42439e-05;stroke-dasharray:none;stroke-opacity:1"
         id="path10-4"
         d="m -55.870941,65.477733 a 0.2868371,0.28553328 0 0 1 -0.248408,-0.142767 0.2868371,0.28553328 0 0 1 0,-0.285533 0.2868371,0.28553328 0 0 1 0.248408,-0.142767 V 65.1922 Z"
         transform="scale(-1,1)" /><circle
         id="path12"
         style="fill:#c0c0c0;stroke:#c0c0c0;stroke-width:0.0222895"
         cx="55.903893"
         cy="65.385414"
         r="0.008415902" /><circle
         id="path13-6"
         style="fill:#c0c0c0;stroke:#c0c0c0;stroke-width:0.0222895"
         cx="56.415665"
         cy="63.932518"
         r="0.008184487" /><rect
         style="opacity:1;fill:#c0c0c0;fill-opacity:1;stroke:#111111;stroke-width:0.0113771;stroke-dasharray:none;stroke-opacity:1"
         id="rect14-0"
         width="0.52545571"
         height="0.38804826"
         x="52.150101"
         y="67.059235"
         ry="0.022239516"
         rx="0.11548278" /><rect
         style="fill:#c0c0c0;fill-opacity:1;stroke:#111111;stroke-width:0.0112225;stroke-dasharray:none;stroke-opacity:1"
         id="rect14"
         width="0.52166992"
         height="0.38032225"
         x="52.150246"
         y="66.719978"
         ry="0.016601155"
         rx="0.11465076" /><circle
         style="fill:#c0c0c0;fill-opacity:1;stroke:#111110;stroke-width:0.00842439;stroke-dasharray:none;stroke-opacity:1"
         id="path14"
         cx="52.411568"
         cy="66.594208"
         r="0.29805356" /><rect
         style="fill:#00755e;fill-opacity:1;stroke:#00755e;stroke-width:0.126366;stroke-dasharray:none;stroke-opacity:1"
         id="rect15"
         width="0.19159609"
         height="0.60161161"
         x="52.317593"
         y="67.71991"
         rx="0.092750311"
         ry="0.058221497" /><rect
         style="fill:#c0c0c0;fill-opacity:1;stroke:#111111;stroke-width:0.0113771;stroke-dasharray:none;stroke-opacity:1"
         id="rect14-0-2"
         width="0.52545571"
         height="0.38804826"
         x="55.900108"
         y="67.066566"
         ry="0.022239516"
         rx="0.11548278" /><circle
         style="fill:#c0c0c0;fill-opacity:1;stroke:#111110;stroke-width:0.00842439;stroke-dasharray:none;stroke-opacity:1"
         id="path14-9-4"
         cx="56.163696"
         cy="67.739532"
         r="0.29805356" /><rect
         style="fill:#c0c0c0;fill-opacity:1;stroke:#111111;stroke-width:0.0112225;stroke-dasharray:none;stroke-opacity:1"
         id="rect14-6"
         width="0.52166992"
         height="0.38032225"
         x="55.900253"
         y="66.727318"
         ry="0.016601155"
         rx="0.11465076" /><circle
         style="fill:#c0c0c0;fill-opacity:1;stroke:#111110;stroke-width:0.00842439;stroke-dasharray:none;stroke-opacity:1"
         id="path14-0"
         cx="56.161579"
         cy="66.601547"
         r="0.29805356" /><rect
         style="fill:#00755e;fill-opacity:1;stroke:#00755e;stroke-width:0.126366;stroke-dasharray:none;stroke-opacity:1"
         id="rect15-4"
         width="0.19159609"
         height="0.60161161"
         x="56.067604"
         y="67.727249"
         rx="0.092750311"
         ry="0.058221497" /><path
         style="opacity:1;fill:#c0c0c0;fill-opacity:1;stroke:#c0c0c0;stroke-width:0.0421219;stroke-dasharray:none;stroke-opacity:1"
         d="m 54.307484,64.408277 c 0.0079,-0.29946 0.0079,-0.29946 0.0079,-0.29946 v 0"
         id="path16" /><path
         style="opacity:1;fill:#00755e;fill-opacity:1;stroke:#00755e;stroke-width:0.168488;stroke-dasharray:none;stroke-opacity:1"
         d="m 54.012069,65.725325 c 0.110046,0.0043 0.260274,0.01086 0.382131,-0.0014 0.04222,-0.0042 0.175761,-0.02656 0.230831,-0.04879"
         id="path17" /><circle
         style="opacity:1;fill:#00755e;fill-opacity:1;stroke:#00755e;stroke-width:0.204644;stroke-dasharray:none;stroke-opacity:1"
         id="path19"
         cx="54.332481"
         cy="67.458336"
         r="0.90693706" /><path
         style="opacity:1;fill:#c0c0c0;fill-opacity:1;stroke:#c0c0c0;stroke-width:2;stroke-dasharray:none;stroke-opacity:1"
         id="path18"
         d="m 136.39271,148.96042 c -2.07514,1.78892 -1.79047,-1.79743 -4.39224,-0.93881 -2.60177,0.85861 -0.2384,3.57108 -2.9707,3.36868 -2.7323,-0.20239 0.005,-2.53703 -2.44194,-3.76962 -2.44686,-1.23259 -2.69371,2.35656 -4.48262,0.28142 -1.78892,-2.07514 1.79743,-1.79047 0.93881,-4.39224 -0.85862,-2.60177 -3.57108,-0.2384 -3.36869,-2.9707 0.2024,-2.7323 2.53704,0.005 3.76963,-2.44194 1.23259,-2.44686 -2.35656,-2.69371 -0.28142,-4.48262 2.07514,-1.78891 1.79047,1.79744 4.39224,0.93882 2.60176,-0.85862 0.2384,-3.57108 2.9707,-3.36869 2.7323,0.20239 -0.005,2.53703 2.44193,3.76962 2.44687,1.23259 2.69371,-2.35656 4.48263,-0.28142 1.78891,2.07514 -1.79744,1.79047 -0.93882,4.39224 0.85862,2.60177 3.57108,0.2384 3.36869,2.9707 -0.20239,2.7323 -2.53703,-0.005 -3.76962,2.44194 -1.2326,2.44686 2.35656,2.69371 0.28142,4.48262 z"
         transform="matrix(0.0841327,-0.00432674,0.00432674,0.0841327,42.802582,56.121808)" /><circle
         style="opacity:1;fill:#00755e;fill-opacity:1;stroke:none;stroke-width:0.246413;stroke-dasharray:none;stroke-opacity:1"
         id="path20"
         cx="54.340839"
         cy="67.444405"
         r="0.32598433" /><circle
         style="fill:#c0c0c0;fill-opacity:1;stroke:#111110;stroke-width:0.00842439;stroke-dasharray:none;stroke-opacity:1"
         id="path14-9"
         cx="52.413685"
         cy="67.732201"
         r="0.29805356" /></g></g></svg>
