<?xml version="1.0" encoding="UTF-8" standalone="no"?>
<!-- Created with Inkscape (http://www.inkscape.org/) -->

<svg
   width="1024"
   height="1024"
   viewBox="0 0 270.93333 270.93333"
   version="1.1"
   id="svg1"
   inkscape:version="1.3.2 (091e20e, 2023-11-25, custom)"
   sodipodi:docname="hullrs.svg"
   xmlns:inkscape="http://www.inkscape.org/namespaces/inkscape"
   xmlns:sodipodi="http://sodipodi.sourceforge.net/DTD/sodipodi-0.dtd"
   xmlns="http://www.w3.org/2000/svg"
   xmlns:svg="http://www.w3.org/2000/svg">
  <sodipodi:namedview
     id="namedview1"
     pagecolor="#ffffff"
     bordercolor="#000000"
     borderopacity="0.25"
     inkscape:showpageshadow="2"
     inkscape:pageopacity="0.0"
     inkscape:pagecheckerboard="0"
     inkscape:deskcolor="#d1d1d1"
     inkscape:document-units="mm"
     inkscape:zoom="1"
     inkscape:cx="401"
     inkscape:cy="509.5"
     inkscape:window-width="1920"
     inkscape:window-height="1009"
     inkscape:window-x="-8"
     inkscape:window-y="-8"
     inkscape:window-maximized="1"
     inkscape:current-layer="svg1" />
  <defs
     id="defs1">
    <linearGradient
       id="swatch43"
       inkscape:swatch="solid">
      <stop
         style="stop-color:#000000;stop-opacity:1;"
         offset="0"
         id="stop43" />
    </linearGradient>
  </defs>
  <g
     inkscape:label="Layer 1"
     inkscape:groupmode="layer"
     id="layer1" />
  <rect
     style="fill:#c0c0c0;fill-opacity:0.5;stroke:none;stroke-width:6;stroke-dasharray:none;stroke-opacity:1"
     id="rect43"
     width="270.69742"
     height="270.69745"
     x="0.15132181"
     y="0.27604356" />
  <path
     sodipodi:type="star"
     style="fill:#00755e;fill-opacity:1;stroke:#c0c0c0;stroke-width:2.08088551;stroke-dasharray:none;stroke-opacity:1"
     id="path57"
     inkscape:flatsided="false"
     sodipodi:sides="12"
     sodipodi:cx="131.2244"
     sodipodi:cy="132.25768"
     sodipodi:r1="69.433624"
     sodipodi:r2="81.686615"
     sodipodi:arg1="0.96525166"
     sodipodi:arg2="1.227051"
     inkscape:rounded="0.62"
     inkscape:randomized="0"
     d="m 170.74671,189.34546 c -11.80904,8.17548 1.52998,14.97958 -11.99265,19.82008 -13.52262,4.84052 -7.53156,-8.8829 -21.84623,-7.70724 -14.31467,1.17566 -6.16479,13.73769 -20.29598,11.16838 -14.13119,-2.56931 -2.08107,-11.45861 -15.06577,-17.59779 -12.984694,-6.13918 -12.207704,8.81479 -23.161018,-0.47589 -10.953318,-9.29068 3.927038,-10.96398 -4.24845,-22.77301 -8.175485,-11.80904 -14.979577,1.52998 -19.820086,-11.99265 -4.84051,-13.52262 8.882905,-7.53156 7.707243,-21.84623 -1.175662,-14.31467 -13.737684,-6.16479 -11.168377,-20.29598 2.569308,-14.13119 11.458604,-2.08107 17.597786,-15.06577 6.13918,-12.984694 -8.814789,-12.207704 0.47589,-23.161019 9.290682,-10.953318 10.963979,3.927038 22.773016,-4.248449 11.809036,-8.175486 -1.529979,-14.979577 11.992646,-19.820086 13.52262,-4.840511 7.53156,8.882904 21.84623,7.707242 14.31467,-1.175661 6.16479,-13.737683 20.29598,-11.168376 14.13119,2.569308 2.08107,11.458604 15.06577,17.597785 12.9847,6.13918 12.20771,-8.814789 23.16102,0.475891 10.95332,9.290681 -3.92704,10.963979 4.24845,22.773015 8.17548,11.809037 14.97958,-1.529979 19.82009,11.992647 4.84051,13.52262 -8.88291,7.53156 -7.70725,21.84623 1.17566,14.31467 13.73769,6.16479 11.16838,20.29598 -2.56931,14.13119 -11.4586,2.08107 -17.59779,15.06577 -6.13918,12.98469 8.81479,12.2077 -0.47589,23.16102 -9.29068,10.95332 -10.96398,-3.92704 -22.77301,4.24845 z"
     inkscape:transform-center-x="0.56954892"
     inkscape:transform-center-y="-5.2127172"
     transform="matrix(0.70815483,-0.13467398,0.13467398,0.70815483,19.501633,59.902323)" />
  <circle
     style="fill:#00755e;fill-opacity:1;stroke:#c0c0c0;stroke-width:2.5;stroke-dasharray:none;stroke-opacity:1"
     id="path58"
     r="43.946842"
     cy="136.2516"
     cx="130.55612" />
  <rect
     style="fill:#c0c0c0;stroke-width:2.5;fill-opacity:1"
     id="rect3-61"
     width="9.6572895"
     height="7.1437359"
     x="119.85625"
     y="158.61772"
     ry="3.5718679" />
  <text
     xml:space="preserve"
     style="font-size:3.175px;fill:#ffffff;fill-opacity:0.0666667;stroke:#00755e;stroke-width:2.5;stroke-dasharray:none;stroke-opacity:1"
     x="105.90945"
     y="211.81891"
     id="text58"><tspan
       sodipodi:role="line"
       id="tspan58"
       style="stroke-width:2.5;stroke:#00755e;stroke-opacity:1"
       x="105.90945"
       y="211.81891" /></text>
  <text
     xml:space="preserve"
     style="font-style:normal;font-variant:normal;font-weight:bold;font-stretch:normal;font-size:19.909px;font-family:Orbitron;-inkscape-font-specification:'Orbitron, Bold';font-variant-ligatures:normal;font-variant-caps:normal;font-variant-numeric:normal;font-variant-east-asian:normal;opacity:1;fill:#00755e;fill-opacity:1;stroke:none;stroke-width:15.6763;stroke-dasharray:none;stroke-opacity:1"
     x="84.082306"
     y="212.2477"
     id="text59"><tspan
       sodipodi:role="line"
       id="tspan59"
       style="font-style:normal;font-variant:normal;font-weight:bold;font-stretch:normal;font-size:19.90899957px;font-family:Orbitron;-inkscape-font-specification:'Orbitron, Bold';font-variant-ligatures:normal;font-variant-caps:normal;font-variant-numeric:normal;font-variant-east-asian:normal;fill:#00755e;fill-opacity:1;stroke:none;stroke-width:15.6763"
       x="84.082306"
       y="212.2477">HULLRS</tspan></text>
  <text
     xml:space="preserve"
     style="font-style:normal;font-variant:normal;font-weight:normal;font-stretch:normal;font-size:5.62888px;font-family:Orbitron;-inkscape-font-specification:'Orbitron, Normal';font-variant-ligatures:normal;font-variant-caps:normal;font-variant-numeric:normal;font-variant-east-asian:normal;opacity:1;fill:#00755e;fill-opacity:1;stroke:none;stroke-width:4.43218;stroke-dasharray:none;stroke-opacity:1"
     x="87.263451"
     y="212.09865"
     id="text60"
     transform="scale(0.96435112,1.0369667)"><tspan
       sodipodi:role="line"
       id="tspan60"
       style="font-style:normal;font-variant:normal;font-weight:normal;font-stretch:normal;font-size:5.62888px;font-family:Orbitron;-inkscape-font-specification:'Orbitron, Normal';font-variant-ligatures:normal;font-variant-caps:normal;font-variant-numeric:normal;font-variant-east-asian:normal;stroke-width:4.43218"
       x="87.263451"
       y="212.09865">Hull University Robotics Society</tspan></text>
  <rect
     style="fill:#bfc0c0;stroke-width:0.1;fill-opacity:1;stroke:#111111;stroke-opacity:1;stroke-dasharray:none"
     id="rect1"
     width="36.380219"
     height="18.885454"
     x="110.99271"
     y="105.56875"
     ry="4.8947916" />
  <rect
     style="fill:#c0c0c0;stroke-width:0.1;fill-opacity:1;stroke-dasharray:none;stroke:#111111;stroke-opacity:1"
     id="rect2"
     width="35.057301"
     height="32.908367"
     x="112.05104"
     y="125.01563"
     ry="4.8947916" />
  <rect
     style="fill:#c0c0c0;stroke-width:2.5;fill-opacity:1"
     id="rect3"
     width="9.6572895"
     height="7.1437359"
     x="130.83646"
     y="158.61772"
     ry="3.5718679" />
  <rect
     style="fill:#c0c0c0;stroke-width:2.5;fill-opacity:1"
     id="rect3-1"
     width="9.6572895"
     height="7.1437359"
     x="130.83646"
     y="166.29062"
     ry="3.5718679" />
  <rect
     style="fill:#c0c0c0;stroke-width:2.5;fill-opacity:1"
     id="rect3-6"
     width="9.6572895"
     height="7.1437359"
     x="119.85625"
     y="166.15833"
     ry="3.5718679" />
  <circle
     style="fill:#c0c0c0;fill-opacity:1;stroke:#111111;stroke-width:0.1;stroke-dasharray:none;stroke-opacity:1"
     id="path7"
     cx="129.79886"
     cy="101.00469"
     r="1.5213542" />
  <circle
     style="fill:#c0c0c0;stroke:#00755e;stroke-width:1.5;stroke-dasharray:none;stroke-opacity:1;fill-opacity:1"
     id="path8"
     cx="123.22968"
     cy="115.29218"
     r="2.8442707" />
  <circle
     style="fill:#c0c0c0;stroke:#00755e;stroke-width:1.5;stroke-dasharray:none;stroke-opacity:1;fill-opacity:1"
     id="path8-5"
     cx="135.90051"
     cy="115.39531"
     r="2.8442707" />
  <path
     style="fill:#c0c0c0;stroke:#111111;stroke-width:0.1;stroke-dasharray:none;stroke-opacity:1;fill-opacity:1"
     id="path10"
     sodipodi:type="arc"
     sodipodi:cx="109.81947"
     sodipodi:cy="114.82917"
     sodipodi:rx="3.4048419"
     sodipodi:ry="3.3893652"
     sodipodi:start="1.5707963"
     sodipodi:end="4.712389"
     sodipodi:arc-type="slice"
     d="m 109.81947,118.21854 a 3.4048419,3.3893652 0 0 1 -2.94868,-1.69469 3.4048419,3.3893652 0 0 1 0,-3.38936 3.4048419,3.3893652 0 0 1 2.94868,-1.69468 v 3.38936 z" />
  <path
     style="fill:#c0c0c0;stroke:#111111;stroke-width:0.001;stroke-dasharray:none;stroke-opacity:1;fill-opacity:1"
     id="path10-4"
     sodipodi:type="arc"
     sodipodi:cx="-148.3047"
     sodipodi:cy="114.91699"
     sodipodi:rx="3.4048419"
     sodipodi:ry="3.3893652"
     sodipodi:start="1.5707963"
     sodipodi:end="4.712389"
     sodipodi:arc-type="slice"
     d="m -148.3047,118.30636 a 3.4048419,3.3893652 0 0 1 -2.94868,-1.69469 3.4048419,3.3893652 0 0 1 0,-3.38936 3.4048419,3.3893652 0 0 1 2.94868,-1.69468 v 3.38936 z"
     transform="scale(-1,1)" />
  <circle
     id="path12"
     style="fill:#c0c0c0;stroke:#c0c0c0;stroke-width:0.264583"
     cx="148.69583"
     cy="117.21042"
     r="0.09989927" />
  <circle
     id="path13"
     style="fill:#c0c0c0;stroke:#c0c0c0;stroke-width:0.264583"
     cx="154.77074"
     cy="99.964149"
     r="0.0971523" />
  <rect
     style="opacity:1;fill:#c0c0c0;fill-opacity:1;stroke:#111111;stroke-width:0.135049;stroke-dasharray:none;stroke-opacity:1"
     id="rect14-0"
     width="6.2373161"
     height="4.6062489"
     x="104.13719"
     y="137.07918"
     ry="0.26398969"
     rx="1.3708152" />
  <circle
     style="fill:#c0c0c0;fill-opacity:1;stroke:#111110;stroke-width:0.1;stroke-dasharray:none;stroke-opacity:1"
     id="path14-9"
     cx="107.26604"
     cy="145.06747"
     r="3.5379846" />
  <rect
     style="fill:#c0c0c0;fill-opacity:1;stroke:#111111;stroke-width:0.133215;stroke-dasharray:none;stroke-opacity:1"
     id="rect14"
     width="6.192378"
     height="4.5145388"
     x="104.13892"
     y="133.05212"
     ry="0.19706066"
     rx="1.3609387" />
  <circle
     style="fill:#c0c0c0;fill-opacity:1;stroke:#111110;stroke-width:0.1;stroke-dasharray:none;stroke-opacity:1"
     id="path14"
     cx="107.24091"
     cy="131.55919"
     r="3.5379846" />
  <rect
     style="fill:#00755e;fill-opacity:1;stroke:#00755e;stroke-width:1.5;stroke-dasharray:none;stroke-opacity:1"
     id="rect15"
     width="2.2743027"
     height="7.1413097"
     x="106.1254"
     y="144.9216"
     rx="1.1009738"
     ry="0.69110656" />
  <rect
     style="fill:#c0c0c0;fill-opacity:1;stroke:#111111;stroke-width:0.135049;stroke-dasharray:none;stroke-opacity:1"
     id="rect14-0-2"
     width="6.2373161"
     height="4.6062489"
     x="148.65092"
     y="137.16628"
     ry="0.26398969"
     rx="1.3708152" />
  <circle
     style="fill:#c0c0c0;fill-opacity:1;stroke:#111110;stroke-width:0.1;stroke-dasharray:none;stroke-opacity:1"
     id="path14-9-4"
     cx="151.77977"
     cy="145.15457"
     r="3.5379846" />
  <rect
     style="fill:#c0c0c0;fill-opacity:1;stroke:#111111;stroke-width:0.133215;stroke-dasharray:none;stroke-opacity:1"
     id="rect14-6"
     width="6.192378"
     height="4.5145388"
     x="148.65265"
     y="133.13922"
     ry="0.19706066"
     rx="1.3609387" />
  <circle
     style="fill:#c0c0c0;fill-opacity:1;stroke:#111110;stroke-width:0.1;stroke-dasharray:none;stroke-opacity:1"
     id="path14-0"
     cx="151.75464"
     cy="131.64629"
     r="3.5379846" />
  <rect
     style="fill:#00755e;fill-opacity:1;stroke:#00755e;stroke-width:1.5;stroke-dasharray:none;stroke-opacity:1"
     id="rect15-4"
     width="2.2743027"
     height="7.1413097"
     x="150.63913"
     y="145.0087"
     rx="1.1009738"
     ry="0.69110656" />
  <path
     style="opacity:1;fill:#c0c0c0;fill-opacity:1;stroke:#c0c0c0;stroke-width:0.5;stroke-dasharray:none;stroke-opacity:1"
     d="m 129.74599,105.61155 c 0.0935,-3.55468 0.0935,-3.55468 0.0935,-3.55468 v 0"
     id="path16" />
  <path
     style="opacity:1;fill:#00755e;fill-opacity:1;stroke:#00755e;stroke-width:2;stroke-dasharray:none;stroke-opacity:1"
     d="m 126.23933,121.24531 c 1.30627,0.0511 3.08952,0.12897 4.536,-0.0162 0.50113,-0.0503 2.08634,-0.31523 2.74004,-0.57911"
     id="path17"
     sodipodi:nodetypes="csc" />
  <circle
     style="opacity:1;fill:#00755e;fill-opacity:1;stroke:#00755e;stroke-width:2.42919;stroke-dasharray:none;stroke-opacity:1"
     id="path19"
     cx="130.04271"
     cy="141.81667"
     r="10.765614" />
  <path
     sodipodi:type="star"
     style="opacity:1;fill:#c0c0c0;fill-opacity:1;stroke:#c0c0c0;stroke-width:2;stroke-dasharray:none;stroke-opacity:1"
     id="path18"
     inkscape:flatsided="false"
     sodipodi:sides="8"
     sodipodi:cx="129.77812"
     sodipodi:cy="141.28751"
     sodipodi:r1="10.130467"
     sodipodi:r2="7.0913267"
     sodipodi:arg1="0.8593372"
     sodipodi:arg2="1.2520363"
     inkscape:rounded="0.61"
     inkscape:randomized="0"
     d="m 136.39271,148.96042 c -2.07514,1.78892 -1.79047,-1.79743 -4.39224,-0.93881 -2.60177,0.85861 -0.2384,3.57108 -2.9707,3.36868 -2.7323,-0.20239 0.005,-2.53703 -2.44194,-3.76962 -2.44686,-1.23259 -2.69371,2.35656 -4.48262,0.28142 -1.78892,-2.07514 1.79743,-1.79047 0.93881,-4.39224 -0.85862,-2.60177 -3.57108,-0.2384 -3.36869,-2.9707 0.2024,-2.7323 2.53704,0.005 3.76963,-2.44194 1.23259,-2.44686 -2.35656,-2.69371 -0.28142,-4.48262 2.07514,-1.78891 1.79047,1.79744 4.39224,0.93882 2.60176,-0.85862 0.2384,-3.57108 2.9707,-3.36869 2.7323,0.20239 -0.005,2.53703 2.44193,3.76962 2.44687,1.23259 2.69371,-2.35656 4.48263,-0.28142 1.78891,2.07514 -1.79744,1.79047 -0.93882,4.39224 0.85862,2.60177 3.57108,0.2384 3.36869,2.9707 -0.20239,2.7323 -2.53703,-0.005 -3.76962,2.44194 -1.2326,2.44686 2.35656,2.69371 0.28142,4.48262 z"
     inkscape:transform-center-x="1.700347e-06"
     inkscape:transform-center-y="-1.9422506e-06"
     transform="rotate(-2.9439893,137.63267,136.33777)" />
  <circle
     style="opacity:1;fill:#00755e;fill-opacity:1;stroke:none;stroke-width:2.925;stroke-dasharray:none;stroke-opacity:1"
     id="path20"
     cx="130.14192"
     cy="141.65128"
     r="3.8695312" />
</svg>
